<svg width="662" height="366" viewBox="0 0 662 366" fill="none" xmlns="http://www.w3.org/2000/svg">
<path fill-rule="evenodd" clip-rule="evenodd" d="M661.279 0H0.278809V366H661.279V0ZM468.487 22C466.277 22 464.487 23.7908 464.487 26V173C464.487 175.209 466.277 177 468.487 177H634.726C636.935 177 638.726 175.209 638.726 173V26C638.726 23.7908 636.935 22 634.726 22H468.487ZM39.6377 26.698H27.2814C25.2557 26.698 23.8378 27.103 23.0275 27.9133C22.2173 28.5884 21.8121 29.8713 21.8121 31.762V170.923C21.8121 174.974 23.7703 177 27.6865 177H80.9607C98.7863 177 113.641 173.759 125.525 167.277C137.408 160.795 146.321 151.882 152.263 140.539C158.205 129.06 161.176 116.096 161.176 101.646C161.176 87.3318 158.272 74.7053 152.466 63.7671C146.659 52.6936 137.813 43.9158 125.93 37.4338C114.181 30.9517 99.2589 27.4407 81.1632 26.9004C78.1923 26.7654 74.3436 26.698 69.6171 26.698H54.83H39.6377ZM67.7941 61.3362C67.7941 59.4456 68.4692 58.5002 69.8197 58.5002H74.6812C83.459 58.5002 90.6837 60.1208 96.3555 63.3618C102.027 66.6028 106.214 71.397 108.914 77.7439C111.615 83.9558 112.966 91.7883 112.966 101.241C112.966 111.91 111.278 120.485 107.902 126.967C104.661 133.449 100.002 138.108 93.9247 140.944C87.8478 143.78 80.5555 145.198 72.0479 145.198H70.6299C68.7394 145.198 67.7941 144.185 67.7941 142.159V61.3362ZM311.171 30.1414C311.171 27.8457 310.158 26.698 308.132 26.698H278.761C275.79 26.698 274.304 28.1157 274.304 30.9517V97.1899C274.304 98.8105 273.967 99.6882 273.292 99.8232C272.751 99.8232 272.009 99.2156 271.063 98.0002L222.448 30.344C221.368 28.8586 220.355 27.9133 219.41 27.5081C218.599 26.968 217.316 26.698 215.561 26.698H182.543C179.572 26.698 178.087 28.251 178.087 31.3569V172.949C178.087 175.65 179.775 177 183.151 177H210.699C214.075 177 215.696 175.515 215.561 172.544V98.8105C215.561 98.1353 215.763 97.7302 216.169 97.5952C216.574 97.46 217.046 97.7302 217.587 98.4053L273.292 173.962C274.372 175.312 275.25 176.19 275.925 176.595C276.189 176.683 276.468 176.757 276.76 176.816C277.03 176.871 277.311 176.913 277.605 176.943C277.772 176.96 277.943 176.974 278.117 176.983C278.184 176.987 278.252 176.99 278.32 176.992C278.465 176.997 278.611 177 278.761 177H306.512C307.862 177 308.943 176.662 309.753 175.987C310.698 175.312 311.171 174.434 311.171 173.354V30.1414ZM332.185 31.3569C332.185 28.251 333.468 26.698 336.034 26.698H374.521C376.952 26.698 378.167 28.1157 378.167 30.9517V140.944C378.167 142.834 378.978 143.78 380.598 143.78H441.57C444.676 143.78 446.229 145.062 446.229 147.628V172.544C446.229 173.759 445.823 174.839 445.013 175.785C444.203 176.595 442.92 177 441.165 177H337.655C335.494 177 334.008 176.595 333.198 175.785C332.523 174.974 332.185 173.691 332.185 171.936V31.3569ZM162.796 340.177C163.201 338.827 162.999 337.341 162.189 335.72L118.03 244.77C116.949 242.339 117.152 240.178 118.637 238.287L151.858 197.572C153.208 196.087 153.411 194.736 152.466 193.521C151.52 192.306 149.9 191.698 147.604 191.698H116.814C114.384 191.698 112.561 192.036 111.345 192.711C110.265 193.386 109.185 194.466 108.104 195.952L70.8325 248.213C70.0222 249.158 69.2795 249.631 68.6042 249.631C68.0641 249.631 67.7941 248.821 67.7941 247.2V195.952C67.7941 193.116 66.5786 191.698 64.1479 191.698H25.6609C23.0951 191.698 21.8121 193.251 21.8121 196.357V336.936C21.8121 338.691 22.1498 339.974 22.825 340.785C23.6353 341.595 25.1207 342 27.2814 342H61.1095C65.5658 342 67.7941 340.042 67.7941 336.126V305.539C67.7941 303.513 68.1992 302.027 69.0094 301.082L83.3915 282.649C85.282 280.218 86.7675 279.88 87.8478 281.636L112.561 337.949C113.776 340.65 116.207 342 119.853 342H159.353C161.378 342 162.526 341.392 162.796 340.177ZM178.284 196.357C178.284 193.251 179.567 191.698 182.133 191.698H220.62C223.051 191.698 224.266 193.116 224.266 195.952V305.944C224.266 307.834 225.077 308.78 226.697 308.78H287.669C290.775 308.78 292.328 310.062 292.328 312.628V337.544C292.328 338.759 291.923 339.839 291.112 340.785C290.302 341.595 289.019 342 287.264 342H183.754C181.593 342 180.108 341.595 179.297 340.785C178.622 339.974 178.284 338.691 178.284 336.936V196.357ZM308.447 336.328C308.447 340.109 310.203 342 313.714 342H340.655C342.545 342 343.761 341.73 344.301 341.19C344.841 340.515 345.111 339.299 345.111 337.544V248.01C345.111 246.66 345.381 245.917 345.922 245.782C346.462 245.512 347.002 246.188 347.542 247.808L376.711 338.354C377.521 340.785 379.142 342 381.573 342H402.842C405.138 342 406.758 340.785 407.703 338.354L436.873 246.188C437.278 244.972 437.75 244.364 438.291 244.364C438.966 244.364 439.303 244.905 439.303 245.985V336.936C439.303 338.691 439.641 339.974 440.316 340.785C441.126 341.595 442.544 342 444.57 342H478.803C483.125 342 485.285 340.042 485.285 336.126V195.952C485.285 193.116 484.07 191.698 481.639 191.698H423.098C420.532 191.698 418.709 193.656 417.629 197.572L398.791 259.759C398.521 260.704 398.115 261.245 397.575 261.38C397.035 261.38 396.562 260.84 396.157 259.759L375.091 195.344C374.551 193.859 373.875 192.913 373.065 192.508C372.39 191.968 371.175 191.698 369.419 191.698H312.701C309.865 191.698 308.447 193.251 308.447 196.357V336.328ZM636.309 191.698C638.335 191.698 639.347 192.846 639.347 195.141V338.354C639.347 339.434 638.875 340.312 637.929 340.987C637.119 341.662 636.039 342 634.688 342H606.937C605.857 342 604.912 341.865 604.101 341.595C603.426 341.19 602.548 340.312 601.468 338.962L545.763 263.405C545.223 262.73 544.75 262.46 544.345 262.595C543.94 262.73 543.738 263.135 543.738 263.811V337.544C543.873 340.515 542.252 342 538.876 342H511.327C507.951 342 506.263 340.65 506.263 337.949V196.357C506.263 193.251 507.749 191.698 510.72 191.698H543.738C545.493 191.698 546.776 191.968 547.586 192.508C548.531 192.913 549.544 193.859 550.625 195.344L599.24 263C600.185 264.216 600.928 264.823 601.468 264.823C602.143 264.688 602.481 263.811 602.481 262.19V195.952C602.481 193.116 603.966 191.698 606.937 191.698H636.309Z" fill="#D9D9D9"/>
</svg>
